<?xml version="1.0" encoding="UTF-8" standalone="no"?>
<!-- Created with Inkscape (http://www.inkscape.org/) -->

<svg
   width="56.154369mm"
   height="56.154381mm"
   viewBox="0 0 56.154369 56.154381"
   version="1.1"
   id="svg1"
   xmlns="http://www.w3.org/2000/svg"
   xmlns:svg="http://www.w3.org/2000/svg">
  <defs
     id="defs1" />
  <g
     id="layer1"
     transform="translate(-76.922813,-120.42281)">
    <rect
       style="fill:#0f1923;fill-opacity:1;stroke-width:0.297315"
       id="rect1"
       width="56.154377"
       height="56.154377"
       x="76.922813"
       y="120.42281" />
    <path
       d="m 103.72997,167.27057 q -1.016,0 -2.286,-0.2032 -1.2192,-0.2032 -2.336803,-0.508 -1.0668,-0.3048 -1.6764,-0.6604 -0.3556,-0.2032 -0.5588,-0.4064 -0.1524,-0.254 -0.1524,-0.8128 l -0.254,-7.9756 q 0,-1.016 0.6604,-1.016 0.5588,0 0.762,0.9144 l 0.4572,1.9304 q 1.727203,7.2644 6.451603,7.2644 2.54,0 4.0132,-1.6764 1.524,-1.7272 1.524,-4.826 0,-2.9972 -1.5748,-5.588 -1.524,-2.5908 -4.9276,-5.1308 -3.7592,-2.6924 -5.486403,-5.1816 -1.7272,-2.54 -1.7272,-5.3848 0,-3.7592 2.5908,-5.9944 2.641603,-2.286 6.705603,-2.286 1.524,0 2.9464,0.3556 1.4224,0.3556 2.3368,1.016 0.3048,0.2032 0.4572,0.4572 0.2032,0.254 0.2032,0.6604 l 0.1524,7.6708 q 0,0.8636 -0.6604,0.8636 -0.4572,0 -0.6604,-0.7112 l -0.3556,-1.27 q -1.1176,-3.9116 -2.3368,-5.6896 -1.1684,-1.8288 -3.4036,-1.8288 -2.1844,0 -3.5052,1.4224 -1.270003,1.4224 -1.270003,4.0132 0,2.1844 1.422403,4.1656 1.4224,1.9812 4.9784,4.826 3.81,3.0988 5.5372,5.9944 1.778,2.8448 1.778,6.096 0,2.8448 -1.27,4.9784 -1.27,2.1336 -3.5052,3.3528 -2.1844,1.1684 -5.0292,1.1684 z"
       id="text1"
       style="font-size:50.8px;font-family:'Instrument Serif';-inkscape-font-specification:'Instrument Serif';fill:#ffffff;stroke-width:0.264583"
       aria-label="S" />
  </g>
</svg>
